<svg xmlns="http://www.w3.org/2000/svg" xmlns:xlink="http://www.w3.org/1999/xlink" width="500" zoomAndPan="magnify" viewBox="0 0 375 374.999991" height="500" preserveAspectRatio="xMidYMid meet" version="1.0"><defs><g/><clipPath id="7a506721eb"><path d="M 50.859375 305.816406 L 74.492188 305.816406 L 74.492188 329.449219 L 50.859375 329.449219 Z M 50.859375 305.816406 " clip-rule="nonzero"/></clipPath><clipPath id="e1fdf7e8f5"><path d="M 1 2 L 324 2 L 324 293 L 1 293 Z M 1 2 " clip-rule="nonzero"/></clipPath><clipPath id="b204b274e0"><path d="M 214.972656 -70.601562 L 323.605469 69.460938 L 36.476562 292.164062 L -72.15625 152.101562 Z M 214.972656 -70.601562 " clip-rule="nonzero"/></clipPath><clipPath id="9112541c2b"><path d="M 214.972656 -70.601562 L 324.511719 70.625 L 37.382812 293.332031 L -72.15625 152.101562 Z M 214.972656 -70.601562 " clip-rule="nonzero"/></clipPath><clipPath id="292cdd8949"><path d="M 214.972656 -70.601562 L 437.675781 216.527344 L 150.546875 439.230469 L -72.15625 152.101562 Z M 214.972656 -70.601562 " clip-rule="nonzero"/></clipPath><clipPath id="59c475f551"><path d="M 329.140625 87.226562 L 352.773438 87.226562 L 352.773438 110.859375 L 329.140625 110.859375 Z M 329.140625 87.226562 " clip-rule="nonzero"/></clipPath></defs><rect x="-37.5" width="450" fill="#ffffff" y="-37.499999" height="449.999989" fill-opacity="1"/><rect x="-37.5" width="450" fill="#262626" y="-37.499999" height="449.999989" fill-opacity="1"/><g clip-path="url(#7a506721eb)"><path fill="#ffffff" d="M 62.628906 305.816406 C 61.480469 315.507812 60.550781 316.441406 50.859375 317.585938 C 50.878906 317.589844 50.898438 317.589844 50.917969 317.59375 C 60.554688 318.738281 61.484375 319.683594 62.628906 329.359375 C 63.777344 319.664062 64.707031 318.734375 74.398438 317.585938 C 64.707031 316.441406 63.777344 315.507812 62.628906 305.816406 Z M 62.628906 305.816406 " fill-opacity="1" fill-rule="nonzero"/></g><g clip-path="url(#e1fdf7e8f5)"><g clip-path="url(#b204b274e0)"><g clip-path="url(#9112541c2b)"><g clip-path="url(#292cdd8949)"><path fill="#ffffff" d="M 39.15625 295.617188 C -22.191406 216.523438 -7.734375 102.132812 71.457031 40.710938 C 150.648438 -20.710938 264.9375 -6.179688 326.285156 72.914062 C 387.632812 152.007812 373.175781 266.394531 294.082031 327.742188 C 214.96875 389.261719 100.578125 374.808594 39.15625 295.617188 Z M 323.855469 74.796875 C 263.488281 -3.035156 151.171875 -17.226562 73.339844 43.140625 C -4.492188 103.507812 -18.707031 216 41.585938 293.730469 C 101.878906 371.464844 214.445312 385.777344 292.273438 325.410156 C 370.105469 265.042969 384.222656 152.628906 323.855469 74.796875 Z M 323.855469 74.796875 " fill-opacity="1" fill-rule="nonzero"/></g></g></g></g><g clip-path="url(#59c475f551)"><path fill="#ffffff" d="M 340.910156 87.226562 C 339.765625 96.917969 338.835938 97.851562 329.140625 98.996094 C 329.160156 99 329.179688 99 329.199219 99.003906 L 329.203125 99.003906 C 338.839844 100.148438 339.765625 101.09375 340.910156 110.769531 C 342.058594 101.074219 342.988281 100.144531 352.683594 98.996094 C 342.988281 97.851562 342.058594 96.917969 340.910156 87.226562 Z M 340.910156 87.226562 " fill-opacity="1" fill-rule="nonzero"/></g><g fill="#ffffff" fill-opacity="1"><g transform="translate(88.526739, 345.366334)"><g><path d="M 22.214844 -11.296875 L 10.300781 -17.445312 L 9.519531 -15.929688 L 14.679688 -13.265625 L 6.1875 3.191406 L 7.78125 4.015625 L 16.273438 -12.445312 L 21.433594 -9.78125 Z M 22.214844 -11.296875 "/></g></g></g><g fill="#ffffff" fill-opacity="1"><g transform="translate(111.165548, 356.329661)"><g><path d="M 3.894531 -0.402344 L 6.492188 -7.574219 L 13.664062 -4.980469 L 14.226562 -6.527344 L 7.050781 -9.125 L 9.617188 -16.214844 L 18.75 -12.910156 L 19.328125 -14.515625 L 8.515625 -18.429688 L 1.628906 0.589844 L 12.6875 4.59375 L 13.269531 2.988281 Z M 3.894531 -0.402344 "/></g></g></g><g fill="#ffffff" fill-opacity="1"><g transform="translate(134.250829, 364.173626)"><g><path d="M 17.367188 3.625 L 19.234375 4.015625 L 14.796875 -17.574219 L 13.269531 -17.894531 L 0.566406 0.117188 L 2.433594 0.507812 L 5.632812 -4.078125 L 16.269531 -1.859375 Z M 6.597656 -5.441406 L 13.53125 -15.328125 L 15.929688 -3.492188 Z M 6.597656 -5.441406 "/></g></g></g><g fill="#ffffff" fill-opacity="1"><g transform="translate(163.706545, 369.517985)"><g><path d="M 11.554688 0.886719 C 14.097656 1.019531 16.480469 0.246094 18.40625 -1.21875 L 17.316406 -2.515625 C 15.722656 -1.328125 13.753906 -0.734375 11.789062 -0.835938 C 7.492188 -1.058594 3.402344 -4.828125 3.667969 -9.9375 C 3.933594 -15.042969 8.386719 -18.371094 12.6875 -18.148438 C 14.621094 -18.050781 16.519531 -17.257812 17.980469 -15.910156 L 19.175781 -17.148438 C 17.40625 -18.773438 15.144531 -19.757812 12.632812 -19.890625 C 7.496094 -20.15625 2.136719 -16.121094 1.820312 -10.03125 C 1.507812 -3.945312 6.421875 0.621094 11.554688 0.886719 Z M 11.554688 0.886719 "/></g></g></g><g fill="#ffffff" fill-opacity="1"><g transform="translate(192.671737, 370.255602)"><g><path d="M 12.496094 -21.527344 L 13.40625 -12.09375 L 2.476562 -11.039062 L 1.566406 -20.472656 L -0.21875 -20.300781 L 1.726562 -0.167969 L 3.507812 -0.339844 L 2.636719 -9.371094 L 13.566406 -10.425781 L 14.4375 -1.394531 L 16.222656 -1.566406 L 14.277344 -21.699219 Z M 12.496094 -21.527344 "/></g></g></g><g fill="#ffffff" fill-opacity="1"><g transform="translate(219.993836, 366.86248)"><g><path d="M 3.039062 -2.46875 L 1.289062 -9.894531 L 8.710938 -11.644531 L 8.335938 -13.246094 L 0.910156 -11.496094 L -0.820312 -18.835938 L 8.628906 -21.066406 L 8.234375 -22.726562 L -2.957031 -20.085938 L 1.6875 -0.398438 L 13.132812 -3.097656 L 12.742188 -4.757812 Z M 3.039062 -2.46875 "/></g></g></g><g fill="#ffffff" fill-opacity="1"><g transform="translate(243.488538, 360.751361)"><g><path d="M 15.171875 -5.789062 L 7.121094 -11.003906 C 9.640625 -12.832031 10.34375 -15.605469 9.292969 -18.359375 C 8.015625 -21.707031 4.640625 -23.421875 0.402344 -21.800781 L -5.589844 -19.515625 L 1.621094 -0.617188 L 3.292969 -1.257812 L 0.636719 -8.222656 L 4.957031 -9.871094 C 5.171875 -9.953125 5.386719 -10.035156 5.59375 -10.144531 L 13.308594 -5.078125 Z M -3.308594 -18.5625 L 1.007812 -20.210938 C 4.007812 -21.351562 6.558594 -20.503906 7.617188 -17.722656 C 8.679688 -14.941406 7.363281 -12.550781 4.367188 -11.410156 L 0.046875 -9.761719 Z M -3.308594 -18.5625 "/></g></g></g><g fill="#ffffff" fill-opacity="1"><g transform="translate(267.805975, 350.624075)"><g/></g></g><g fill="#ffffff" fill-opacity="1"><g transform="translate(282.345282, 342.868638)"><g><path d="M 12.460938 -8.347656 L 14.234375 -9.535156 L 0.394531 -13.375 L 2.402344 -25.957031 L 0.503906 -24.683594 L -1.929688 -9.210938 L -8.328125 -18.765625 L -9.816406 -17.769531 L 1.441406 -0.964844 L 2.929688 -1.960938 L -0.59375 -7.21875 L 0.132812 -11.742188 Z M 12.460938 -8.347656 "/></g></g></g><g fill="#ffffff" fill-opacity="1"><g transform="translate(304.647962, 327.032061)"><g><path d="M -9.351562 -27.234375 L -10.90625 -25.855469 L -9.265625 -21.171875 L -8.335938 -21.996094 Z M 1.507812 -3.613281 L -3.550781 -9.324219 L 2.15625 -14.382812 L 1.0625 -15.617188 L -4.644531 -10.554688 L -9.648438 -16.199219 L -2.382812 -22.640625 L -3.511719 -23.914062 L -12.117188 -16.285156 L 1.296875 -1.148438 L 10.097656 -8.949219 L 8.96875 -10.226562 Z M 1.507812 -3.613281 "/></g></g></g><g fill="#ffffff" fill-opacity="1"><g transform="translate(322.384079, 310.532258)"><g><path d="M 5.402344 -5.753906 C 7.683594 -8.367188 8.078125 -12.164062 5.464844 -14.441406 C 3.089844 -16.511719 0.582031 -15.480469 -2.621094 -13.789062 L -4.003906 -13.039062 C -6.316406 -11.835938 -7.992188 -11.761719 -9.253906 -12.863281 C -10.84375 -14.25 -10.710938 -16.472656 -9.152344 -18.257812 C -7.574219 -20.066406 -5.503906 -20.328125 -3.433594 -19.710938 L -3.066406 -21.191406 C -5.296875 -22.0625 -8.28125 -21.714844 -10.371094 -19.320312 C -12.574219 -16.792969 -12.742188 -13.527344 -10.453125 -11.53125 C -8.515625 -9.84375 -6.136719 -10.105469 -3.214844 -11.660156 L -1.652344 -12.480469 C 0.683594 -13.707031 2.480469 -14.628906 4.269531 -13.070312 C 6.117188 -11.457031 5.828125 -8.792969 4.140625 -6.855469 C 2.390625 -4.851562 -0.136719 -4.375 -2.355469 -5.390625 L -2.839844 -3.820312 C -0.167969 -2.445312 3.21875 -3.25 5.402344 -5.753906 Z M 5.402344 -5.753906 "/></g></g></g><g fill="#ffffff" fill-opacity="1"><g transform="translate(338.305992, 291.33885)"><g><path d="M 4.609375 -6.410156 C 6.527344 -9.296875 6.429688 -13.109375 3.542969 -15.03125 C 0.917969 -16.773438 -1.4375 -15.425781 -4.390625 -13.332031 L -5.664062 -12.40625 C -7.800781 -10.914062 -9.453125 -10.625 -10.847656 -11.550781 C -12.605469 -12.71875 -12.757812 -14.941406 -11.445312 -16.914062 C -10.117188 -18.910156 -8.101562 -19.441406 -5.96875 -19.097656 L -5.792969 -20.613281 C -8.117188 -21.1875 -11.035156 -20.457031 -12.792969 -17.808594 C -14.648438 -15.019531 -14.390625 -11.757812 -11.863281 -10.078125 C -9.722656 -8.652344 -7.398438 -9.222656 -4.699219 -11.140625 L -3.257812 -12.160156 C -1.105469 -13.679688 0.5625 -14.828125 2.535156 -13.515625 C 4.578125 -12.15625 4.636719 -9.476562 3.214844 -7.335938 C 1.742188 -5.121094 -0.703125 -4.320312 -3.035156 -5.039062 L -3.3125 -3.417969 C -0.484375 -2.402344 2.769531 -3.640625 4.609375 -6.410156 Z M 4.609375 -6.410156 "/></g></g></g><g fill="#ffffff" fill-opacity="1"><g transform="translate(351.328619, 270.447477)"><g><path d="M 0.808594 -1.535156 L 1.644531 -3.117188 L -16.25 -12.546875 L -17.085938 -10.960938 Z M 0.808594 -1.535156 "/></g></g></g><g fill="#ffffff" fill-opacity="1"><g transform="translate(358.02363, 257.515207)"><g><path d="M 6.414062 -16.542969 L 7.101562 -18.320312 L -14.921875 -17.46875 L -15.484375 -16.011719 L 0.207031 -0.539062 L 0.898438 -2.316406 L -3.105469 -6.222656 L 0.824219 -16.355469 Z M -4.292969 -7.398438 L -12.914062 -15.851562 L -0.84375 -16.289062 Z M -4.292969 -7.398438 "/></g></g></g><g fill="#ffffff" fill-opacity="1"><g transform="translate(367.8113, 229.632146)"><g/></g></g><g fill="#ffffff" fill-opacity="1"><g transform="translate(371.564785, 213.710292)"><g><path d="M -1.175781 -3.734375 L -19.5 -6.425781 L -19.761719 -4.652344 L 0.25 -1.714844 L 1.882812 -12.835938 L 0.199219 -13.085938 Z M -1.175781 -3.734375 "/></g></g></g><g fill="#ffffff" fill-opacity="1"><g transform="translate(374.275977, 190.646736)"><g><path d="M 0.0820312 -1.730469 L 0.167969 -3.519531 L -20.035156 -4.484375 L -20.121094 -2.695312 Z M 0.0820312 -1.730469 "/></g></g></g><g fill="#ffffff" fill-opacity="1"><g transform="translate(374.986785, 175.952841)"><g><path d="M -0.136719 -1.726562 L -0.28125 -3.515625 L -16.785156 -2.195312 L -16.796875 -2.339844 L -0.925781 -11.609375 L -1.03125 -12.933594 L -18.171875 -19.566406 L -18.183594 -19.707031 L -1.679688 -21.027344 L -1.820312 -22.8125 L -21.984375 -21.203125 L -21.824219 -19.214844 L -3.3125 -12.085938 L -20.460938 -2.105469 L -20.300781 -0.117188 Z M -0.136719 -1.726562 "/></g></g></g><g fill="#ffffff" fill-opacity="1"><g transform="translate(371.22952, 141.673092)"><g><path d="M -4.363281 -17.195312 L -4.832031 -19.046875 L -22.285156 -5.585938 L -21.902344 -4.074219 L -0.140625 -0.558594 L -0.609375 -2.410156 L -6.136719 -3.273438 L -8.808594 -13.804688 Z M -7.785156 -3.539062 L -19.710938 -5.433594 L -10.128906 -12.785156 Z M -7.785156 -3.539062 "/></g></g></g><g fill="#ffffff" fill-opacity="1"><g transform="translate(80.682618, 240.598272)"><g><path d="M 3.59375 0 L 3.59375 -1.625 L 7.5 -1.625 C 10.320312 -1.625 12.4375 -2.273438 13.84375 -3.578125 C 15.257812 -4.890625 15.96875 -8.097656 15.96875 -13.203125 L 15.96875 -103.171875 C 15.96875 -108.285156 15.257812 -111.492188 13.84375 -112.796875 C 12.4375 -114.097656 10.320312 -114.75 7.5 -114.75 L 3.59375 -114.75 L 3.59375 -116.375 L 50.359375 -116.375 L 50.359375 -114.75 L 46.296875 -114.75 C 43.460938 -114.75 41.3125 -114.097656 39.84375 -112.796875 C 38.382812 -111.492188 37.65625 -108.453125 37.65625 -103.671875 L 37.65625 -1.625 L 56.390625 -1.625 C 64.867188 -1.625 70.957031 -3.304688 74.65625 -6.671875 C 78.351562 -10.046875 80.414062 -15.863281 80.84375 -24.125 L 81.5 -35.703125 L 83.125 -35.703125 L 81.984375 0 Z M 3.59375 0 "/></g></g></g><g fill="#ffffff" fill-opacity="1"><g transform="translate(128.023136, 240.598272)"><g><path d="M 3.59375 0 L 3.59375 -1.625 L 8.640625 -1.625 C 11.140625 -1.625 12.984375 -2.300781 14.171875 -3.65625 C 15.367188 -5.019531 15.96875 -7.710938 15.96875 -11.734375 L 15.96875 -104.8125 C 15.96875 -108.613281 15.425781 -111.21875 14.34375 -112.625 C 13.257812 -114.039062 11.578125 -114.75 9.296875 -114.75 L 3.59375 -114.75 L 3.59375 -116.375 L 48.40625 -116.375 L 48.40625 -114.75 L 43.84375 -114.75 C 41.675781 -114.75 40.101562 -114.039062 39.125 -112.625 C 38.144531 -111.21875 37.65625 -108.613281 37.65625 -104.8125 L 37.65625 -49.875 L 74.8125 -101.21875 C 76.445312 -103.5 77.585938 -105.316406 78.234375 -106.671875 C 78.890625 -108.035156 79.21875 -109.15625 79.21875 -110.03125 C 79.21875 -111.21875 78.863281 -112.164062 78.15625 -112.875 C 77.445312 -113.582031 75.925781 -114.070312 73.59375 -114.34375 C 71.257812 -114.613281 67.644531 -114.75 62.75 -114.75 L 62.75 -116.375 L 96 -116.375 L 96 -114.75 C 93.507812 -114.75 91.335938 -114.445312 89.484375 -113.84375 C 87.640625 -113.25 85.738281 -111.894531 83.78125 -109.78125 C 81.820312 -107.664062 79.210938 -104.378906 75.953125 -99.921875 L 56.078125 -72.53125 L 86.390625 -19.890625 C 90.410156 -12.929688 93.425781 -8.144531 95.4375 -5.53125 C 97.445312 -2.925781 99.160156 -1.625 100.578125 -1.625 L 100.890625 -1.625 L 100.890625 0 L 90.796875 0 C 85.359375 0 80.953125 -0.515625 77.578125 -1.546875 C 74.210938 -2.578125 71.363281 -4.476562 69.03125 -7.25 C 66.695312 -10.019531 64.222656 -14.015625 61.609375 -19.234375 L 43.359375 -55.25 L 37.65625 -47.265625 L 37.65625 -11.90625 C 37.65625 -7.882812 38.25 -5.164062 39.4375 -3.75 C 40.632812 -2.332031 42.429688 -1.625 44.828125 -1.625 L 48.40625 -1.625 L 48.40625 0 Z M 3.59375 0 "/></g></g></g><g fill="#ffffff" fill-opacity="1"><g transform="translate(215.04875, 240.598272)"><g><path d="M 3.59375 0 L 3.59375 -1.625 L 7.5 -1.625 C 10.320312 -1.625 12.4375 -2.273438 13.84375 -3.578125 C 15.257812 -4.890625 15.96875 -8.097656 15.96875 -13.203125 L 15.96875 -103.171875 C 15.96875 -108.285156 15.257812 -111.492188 13.84375 -112.796875 C 12.4375 -114.097656 10.320312 -114.75 7.5 -114.75 L 3.59375 -114.75 L 3.59375 -116.375 L 50.359375 -116.375 L 50.359375 -114.75 L 46.296875 -114.75 C 43.460938 -114.75 41.3125 -114.097656 39.84375 -112.796875 C 38.382812 -111.492188 37.65625 -108.453125 37.65625 -103.671875 L 37.65625 -1.625 L 56.390625 -1.625 C 64.867188 -1.625 70.957031 -3.304688 74.65625 -6.671875 C 78.351562 -10.046875 80.414062 -15.863281 80.84375 -24.125 L 81.5 -35.703125 L 83.125 -35.703125 L 81.984375 0 Z M 3.59375 0 "/></g></g></g><g fill="#ffffff" fill-opacity="1"><g transform="translate(59.428366, 240.598272)"><g><path d="M 19.5625 0 L 19.5625 -1.625 L 24.28125 -1.625 C 27.65625 -1.625 29.910156 -2.410156 31.046875 -3.984375 C 32.191406 -5.566406 32.765625 -8.640625 32.765625 -13.203125 L 32.765625 -114.75 L 25.421875 -114.75 C 19.992188 -114.75 15.726562 -114.148438 12.625 -112.953125 C 9.53125 -111.765625 7.273438 -109.703125 5.859375 -106.765625 C 4.453125 -103.828125 3.585938 -99.804688 3.265625 -94.703125 L 2.765625 -86.546875 L 1.140625 -86.546875 L 2.28125 -116.375 L 85.09375 -116.375 L 86.234375 -86.546875 L 84.59375 -86.546875 L 84.109375 -94.703125 C 83.785156 -99.804688 82.914062 -103.828125 81.5 -106.765625 C 80.082031 -109.703125 77.828125 -111.765625 74.734375 -112.953125 C 71.640625 -114.148438 67.375 -114.75 61.9375 -114.75 L 54.765625 -114.75 L 54.765625 -13.203125 C 54.765625 -8.640625 55.304688 -5.566406 56.390625 -3.984375 C 57.484375 -2.410156 59.769531 -1.625 63.25 -1.625 L 67.8125 -1.625 L 67.8125 0 Z M 19.5625 0 "/></g></g></g></svg>